<svg width="600" height="400" xmlns="http://www.w3.org/2000/svg">
	<!-- Created with ImageBot - http://www.imagebot.com/ -->
	<g id="imagebot_1">
	<title>Layer 1</title>
		<title stroke="#000000" />
		<metadata stroke="#000000" id="imagebot_67">image/svg+xml</metadata>
		<g transform="matrix(0.353588, 0, 0, 0.353588, 0, 0)" id="imagebot_71" display="inline">
			<title stroke="#000000" />
			<g id="imagebot_45">
				<path fill="none" stroke="#000000" stroke-width="22" stroke-linecap="square" stroke-linejoin="round" stroke-miterlimit="4" stroke-dashoffset="0" id="imagebot_66" d="M367.63995,189.54311A180.59685,180.59685 0 1 1 6.44626,189.54311A180.59685,180.59685 0 1 1 367.63995,189.54311z" />
				<path fill="none" fill-rule="evenodd" stroke="#000000" stroke-width="9.39104" stroke-miterlimit="4" d="M6.44626,189.54311L367.63996,189.54311" id="imagebot_65" />
				<path fill="none" fill-rule="evenodd" stroke="#000000" stroke-width="21.67162" id="imagebot_64" d="M9.33581,189.54311L41.61652,189.54311" />
				<path fill="none" fill-rule="evenodd" stroke="#000000" stroke-width="21.67162" d="M332.46973,189.54311L364.75043,189.54311" id="imagebot_63" />
				<path fill="none" fill-rule="evenodd" stroke="#000000" stroke-width="9.39104" d="M64.09413,200.37892L64.09413,178.70729" id="imagebot_62" />
				<path fill="none" fill-rule="evenodd" stroke="#000000" stroke-width="9.39104" id="imagebot_61" d="M105.07712,200.37892L105.07712,178.70729" />
				<path fill="none" fill-rule="evenodd" stroke="#000000" stroke-width="9.39104" d="M146.06013,200.37892L146.06013,178.70729" id="imagebot_60" />
				<path fill="none" fill-rule="evenodd" stroke="#000000" stroke-width="9.39104" id="imagebot_59" d="M228.02614,200.37892L228.02614,178.70729" />
				<path fill="none" fill-rule="evenodd" stroke="#000000" stroke-width="9.39104" d="M269.00909,200.37892L269.00909,178.70729" id="imagebot_58" />
				<path fill="none" fill-rule="evenodd" stroke="#000000" stroke-width="9.39104" id="imagebot_57" d="M309.99213,200.37892L309.99213,178.70729" />
				<path fill="none" fill-rule="evenodd" stroke="#000000" stroke-width="9.39104" d="M187.04314,200.37892L187.04314,178.70729" id="imagebot_56" />
				<path fill="none" fill-rule="evenodd" stroke="#000000" stroke-width="9.39104" stroke-miterlimit="4" id="imagebot_55" d="M187.04311,8.94626L187.04311,370.13996" />
				<path fill="none" fill-rule="evenodd" stroke="#000000" stroke-width="21.67162" d="M187.04311,11.8358L187.04311,44.1165" id="imagebot_54" />
				<path fill="none" fill-rule="evenodd" stroke="#000000" stroke-width="21.67162" id="imagebot_53" d="M187.04311,334.96973L187.04311,367.25037" />
				<path fill="none" fill-rule="evenodd" stroke="#000000" stroke-width="9.39104" id="imagebot_52" d="M176.20732,66.59412L197.87892,66.59412" />
				<path fill="none" fill-rule="evenodd" stroke="#000000" stroke-width="9.39104" d="M176.20732,107.5771L197.87892,107.5771" id="imagebot_51" />
				<path fill="none" fill-rule="evenodd" stroke="#000000" stroke-width="9.39104" id="imagebot_50" d="M176.20732,148.5601L197.87892,148.5601" />
				<path fill="none" fill-rule="evenodd" stroke="#000000" stroke-width="9.39104" d="M176.20732,230.52614L197.87892,230.52614" id="imagebot_49" />
				<path fill="none" fill-rule="evenodd" stroke="#000000" stroke-width="9.39104" id="imagebot_48" d="M176.20732,271.50909L197.87892,271.50909" />
				<path fill="none" fill-rule="evenodd" stroke="#000000" stroke-width="9.39104" d="M176.20732,312.49207L197.87892,312.49207" id="imagebot_47" />
				<path fill="none" fill-rule="evenodd" stroke="#000000" stroke-width="9.39104" id="imagebot_46" d="M176.20732,189.54311L197.87892,189.54311" />
			</g>
			<rect transform="rotate(90.0002, 186.543, -28.4569)" id="imagebot_43" height="16" width="31" y="-36.45691" x="171.04304" stroke-width="5" stroke="#000000" fill="#000000" />
			<rect id="imagebot_42" height="16" width="31" y="181.04309" x="-45.45696" stroke-width="5" stroke="#000000" fill="#000000" />
			<rect transform="rotate(-90.0002, 187.543, 405.543)" id="imagebot_41" height="16" width="31" y="397.54309" x="172.04304" stroke-width="5" stroke="#000000" fill="#000000" />
			<rect id="imagebot_40" height="16" width="31" y="181.54309" x="389.04304" stroke-width="5" stroke="#000000" fill="#000000" />
			<rect id="imagebot_39" height="28" width="30" y="175.20495" x="173.58026" stroke-width="5" stroke="#000000" fill="#ffffff" />
			<rect id="imagebot_38" height="17.5" width="44" y="180.70535" x="-3.41957" stroke-width="5" stroke="#000000" fill="#ffffff" />
			<rect transform="rotate(90, 187.08, 357.455)" id="imagebot_37" height="17.5" width="44" y="348.70535" x="165.08043" stroke-width="5" stroke="#000000" fill="#ffffff" />
			<rect id="imagebot_36" height="17.5" width="44" y="180.70535" x="334.58043" stroke-width="5" stroke="#000000" fill="#ffffff" />
			<rect id="imagebot_35" transform="rotate(90, 187.08, 20.4553)" height="17.5" width="44" y="11.70535" x="165.08043" stroke-width="5" stroke="#000000" fill="#ffffff" />
			<circle id="imagebot_34" r="4.92383" cy="188.49712" cx="187.6221" stroke-width="5" stroke="#000000" fill="#000000" /> </g>
	</g>
</svg>
