<?xml version="1.0" encoding="UTF-8" standalone="no"?>
<!-- Created with Inkscape (http://www.inkscape.org/) -->
<svg xmlns:dc="http://purl.org/dc/elements/1.1/" xmlns:cc="http://creativecommons.org/ns#" xmlns:rdf="http://www.w3.org/1999/02/22-rdf-syntax-ns#" xmlns:svg="http://www.w3.org/2000/svg" xmlns="http://www.w3.org/2000/svg" xmlns:xlink="http://www.w3.org/1999/xlink" xmlns:sodipodi="http://sodipodi.sourceforge.net/DTD/sodipodi-0.dtd" xmlns:inkscape="http://www.inkscape.org/namespaces/inkscape" sodipodi:docname="old_book.svg" inkscape:version="0.48.3.1 r9886" version="1.1" id="svg2" height="565.09119" width="800.00012">
  <title id="title3362">old book blank pages</title>
  <defs id="defs4">
    <linearGradient id="linearGradient4054">
      <stop style="stop-color:#b37218;stop-opacity:1;" offset="0" id="stop4056"/>
      <stop style="stop-color:#f1d291;stop-opacity:1;" offset="1" id="stop4058"/>
    </linearGradient>
    <linearGradient id="linearGradient4046">
      <stop style="stop-color:#f1d291;stop-opacity:1;" offset="0" id="stop4048"/>
      <stop style="stop-color:#b37218;stop-opacity:1;" offset="1" id="stop4050"/>
    </linearGradient>
    <linearGradient id="linearGradient4022">
      <stop id="stop4030" offset="0" style="stop-color:#e3b76e;stop-opacity:1;"/>
      <stop style="stop-color:#b37218;stop-opacity:1;" offset="1" id="stop4026"/>
    </linearGradient>
    <inkscape:path-effect effect="envelope" id="path-effect4889" is_visible="true" yy="true" xx="false" bendpath1="m 864.00006,378.95137 c 16.69029,6.80549 81.90341,-20.18736 106.03231,0" bendpath2="m 970.03237,378.95137 0,147.41076" bendpath3="m 864.00006,526.36213 106.03231,0" bendpath4="m 864.00006,378.95137 0,147.41076" bendpath1-nodetypes="cc"/>
    <inkscape:perspective sodipodi:type="inkscape:persp3d" inkscape:vp_x="0 : 526.18109 : 1" inkscape:vp_y="0 : 1000 : 0" inkscape:vp_z="744.09448 : 526.18109 : 1" inkscape:persp3d-origin="372.04724 : 350.78739 : 1" id="perspective10"/>
    <inkscape:perspective id="perspective10516" inkscape:persp3d-origin="0.5 : 0.33333333 : 1" inkscape:vp_z="1 : 0.5 : 1" inkscape:vp_y="0 : 1000 : 0" inkscape:vp_x="0 : 0.5 : 1" sodipodi:type="inkscape:persp3d"/>
    <linearGradient inkscape:collect="always" xlink:href="#linearGradient4046" id="linearGradient4052" x1="301.09448" y1="293.0354" x2="357.07721" y2="293.0354" gradientUnits="userSpaceOnUse" gradientTransform="translate(0,6)"/>
    <linearGradient inkscape:collect="always" xlink:href="#linearGradient4054" id="linearGradient4060" x1="355.91428" y1="298.96564" x2="411.38965" y2="298.96564" gradientUnits="userSpaceOnUse"/>
    <linearGradient inkscape:collect="always" xlink:href="#linearGradient4046" id="linearGradient3358" gradientUnits="userSpaceOnUse" gradientTransform="translate(0,6)" x1="301.09448" y1="293.0354" x2="357.07721" y2="293.0354"/>
    <linearGradient inkscape:collect="always" xlink:href="#linearGradient4054" id="linearGradient3360" gradientUnits="userSpaceOnUse" x1="355.91428" y1="298.96564" x2="411.38965" y2="298.96564"/>
  </defs>
  <sodipodi:namedview id="base" pagecolor="#ffffff" bordercolor="#666666" borderopacity="1.0" inkscape:pageopacity="0.0" inkscape:pageshadow="2" inkscape:zoom="0.93303299" inkscape:cx="393.35712" inkscape:cy="282.54975" inkscape:document-units="mm" inkscape:current-layer="layer5" showgrid="false" inkscape:window-width="865" inkscape:window-height="830" inkscape:window-x="266" inkscape:window-y="-3" inkscape:window-maximized="0" showguides="true" inkscape:guide-bbox="true" units="px" fit-margin-top="0" fit-margin-left="0" fit-margin-right="0" fit-margin-bottom="0"/>
  <metadata id="metadata7">
    <rdf:RDF>
      <cc:Work rdf:about="">
        <dc:format>image/svg+xml</dc:format>
        <dc:type rdf:resource="http://purl.org/dc/dcmitype/StillImage"/>
        <dc:title>old book blank pages</dc:title>
        <dc:date>02/20/2013</dc:date>
        <dc:creator>
          <cc:Agent>
            <dc:title>edited by Paul Sherman for WPClipart</dc:title>
          </cc:Agent>
        </dc:creator>
        <dc:rights>
          <cc:Agent>
            <dc:title>PD</dc:title>
          </cc:Agent>
        </dc:rights>
        <dc:publisher>
          <cc:Agent>
            <dc:title>WPCLipart</dc:title>
          </cc:Agent>
        </dc:publisher>
        <dc:subject>
          <rdf:Bag>
            <rdf:li>book</rdf:li>
            <rdf:li>old</rdf:li>
            <rdf:li>blank</rdf:li>
          </rdf:Bag>
        </dc:subject>
        <cc:license rdf:resource="http://creativecommons.org/licenses/publicdomain/"/>
      </cc:Work>
      <cc:License rdf:about="http://creativecommons.org/licenses/publicdomain/">
        <cc:permits rdf:resource="http://creativecommons.org/ns#Reproduction"/>
        <cc:permits rdf:resource="http://creativecommons.org/ns#Distribution"/>
        <cc:permits rdf:resource="http://creativecommons.org/ns#DerivativeWorks"/>
      </cc:License>
    </rdf:RDF>
  </metadata>
  <g inkscape:label="cover" inkscape:groupmode="layer" id="layer1" style="display:inline" transform="translate(42.731832,-18.808216)">
    <text sodipodi:linespacing="125%" id="text3331" y="318.69531" x="467.58707" style="font-size:14px;font-style:normal;font-variant:normal;font-weight:normal;font-stretch:normal;text-align:start;line-height:125%;letter-spacing:0px;word-spacing:0px;writing-mode:lr-tb;text-anchor:start;fill:#ffffff;fill-opacity:1;stroke:none;font-family:Arial;-inkscape-font-specification:Arial" xml:space="preserve"><tspan style="font-size:28px;font-style:italic;font-variant:normal;font-weight:normal;font-stretch:normal;fill:#ffffff;font-family:Georgia;-inkscape-font-specification:Georgia Italic" y="318.69531" x="467.58707" id="tspan3333" sodipodi:role="line"/></text>
  </g>
  <g inkscape:groupmode="layer" id="layer3" inkscape:label="brasscorners" style="display:inline" transform="translate(42.731832,-18.808216)"/>
  <g inkscape:groupmode="layer" id="layer2" inkscape:label="pages" style="display:inline" transform="translate(42.731832,-18.808216)"/>
  <g inkscape:groupmode="layer" id="layer5" inkscape:label="upperpage" style="display:inline" transform="translate(42.731832,-18.808216)">
    <g id="g3291" transform="matrix(2.0075285,0,0,2.0075285,-359.98407,-303.61838)">
      <path sodipodi:nodetypes="sssssccccssss" inkscape:connector-curvature="0" id="rect3819" d="m 171.61467,175.47749 370.94592,0 c 4.45212,0 7.96417,3.58542 8.03636,8.03773 l 4,246.69639 c 0.0722,4.45231 -3.58424,8.03773 -8.03636,8.03773 l -162.34412,0 c -1.62062,-1.39203 -7.02254,-1.23571 -8.03676,0 -0.81906,4.79868 -37.51874,4.4789 -38.10169,0 -0.50548,-0.76554 -4.55392,-1.0692 -5.86463,0 l -164.59872,0 c -4.45215,0 -8.10856,-3.58542 -8.03637,-8.03773 l 4,-246.69639 c 0.0722,-4.45231 3.58422,-8.03773 8.03637,-8.03773 z" style="fill:#a23f08;fill-opacity:1;stroke:#000000;stroke-width:0.70866144;stroke-miterlimit:4;stroke-opacity:1;stroke-dasharray:none;display:inline"/>
      <path style="fill:#a5591d;fill-opacity:1;stroke:#000000;stroke-width:0.53149605;stroke-linecap:round;stroke-linejoin:miter;stroke-miterlimit:4;stroke-opacity:1;stroke-dashoffset:0;display:inline" d="m 547.65354,172.27876 -34.75396,0.97159 c -1.57534,0.044 -2.80811,1.34791 -2.76406,2.92349 -0.34664,3.7652 33.05165,5.03899 33.05165,5.03899 0,0 0.48856,18.49234 0.46161,25.19816 0.58391,2.83912 2.20887,3.04768 3.72679,3.52694 1.21789,4.85163 1.10352,4.37815 4.30327,4.28893 0.28477,-0.012 0.75957,-0.6344 0.75071,-0.94073 -0.37076,-12.75432 -0.71316,-25.5099 -1.06973,-38.26477 -0.044,-1.57557 -1.34773,-2.80853 -2.92308,-2.76449 z" id="path3864" inkscape:connector-curvature="0" sodipodi:nodetypes="cscccccscsc"/>
      <path sodipodi:nodetypes="cscccccscsc" inkscape:connector-curvature="0" id="path3866" d="m 547.65355,172.27876 -34.75394,0.97159 c -1.57536,0.044 -2.80811,1.34792 -2.76407,2.92349 -0.34665,3.7652 33.05165,5.03899 33.05165,5.03899 0,0 0.48856,18.49233 0.46161,25.19817 0.5839,2.83912 2.20887,3.04767 3.72679,3.52694 1.21789,4.85163 1.10353,4.37815 4.30327,4.28893 0.28477,-0.012 0.75956,-0.6344 0.75072,-0.94073 -0.37077,-12.75432 -0.71316,-25.50991 -1.06974,-38.26478 -0.044,-1.57557 -1.34772,-2.80854 -2.92308,-2.76449 z" style="fill:#a5591d;fill-opacity:1;stroke:none;display:inline"/>
      <path sodipodi:nodetypes="ccccccscsc" inkscape:connector-curvature="0" id="path3868" d="m 547.65355,172.27876 -23.1763,0.55129 c -3.73913,3.78465 13.97274,6.1172 17.716,6.4838 1.42861,0.20684 2.76742,1.5192 3.21139,3.0719 0.2891,13.5365 0.12412,22.15746 1.81243,21.88188 1.21789,4.85163 1.10353,4.37815 4.30327,4.28893 0.28477,-0.012 0.75956,-0.6344 0.75072,-0.94073 -0.37077,-12.75433 -0.55465,-19.83967 -0.91122,-32.59454 -0.044,-1.57558 -1.34773,-2.80854 -2.92308,-2.76449 z" style="fill:#d3a325;fill-opacity:1;stroke:none;display:inline"/>
      <path style="fill:#f1dd48;fill-opacity:1;stroke:none;display:inline" d="m 547.65355,172.27876 -10.53975,0.29465 c -1.57521,0.044 -2.80797,1.34792 -2.76393,2.92348 0.0758,0.93529 3.54132,1.40777 7.96773,1.80598 3.03444,1.11103 3.97508,2.92508 4.7652,5.06344 1.34948,6.10341 0.72244,7.84498 3.92218,7.75575 0.28477,-0.012 0.75956,-0.63439 0.75072,-0.94072 -0.37077,-12.75432 -0.0393,-1.40511 -0.39586,-14.15998 -0.044,-1.57557 -1.34772,-2.80854 -2.92308,-2.76449 z" id="path3870" inkscape:connector-curvature="0" sodipodi:nodetypes="csccccscsc"/>
      <path sodipodi:nodetypes="ccsccsc" inkscape:connector-curvature="0" id="path3872" d="m 547.65355,172.27876 -4.28839,0.11989 c -5.99641,0.0245 3.14624,4.36416 3.67352,4.89868 0.80611,0.81738 4.5968,8.41592 4.52896,5.15701 -0.37077,-12.75433 0.14878,5.32189 -0.2078,-7.43298 -0.044,-1.57557 -1.34772,-2.80854 -2.92308,-2.76449 z" style="fill:#fffea3;fill-opacity:1;stroke:none;display:inline"/>
      <path sodipodi:nodetypes="cscccccscsc" inkscape:connector-curvature="0" id="rect7186" d="m 166.92936,172.28292 34.75419,0.96278 c 1.57531,0.0436 2.80839,1.34719 2.76474,2.92278 0.34768,3.76511 -33.05035,5.04737 -33.05035,5.04737 0,0 -0.48338,18.49248 -0.45515,25.19828 -0.58315,2.83927 -2.20815,3.04824 -3.72593,3.52789 -1.21668,4.85194 -1.10238,4.37843 -4.30213,4.29002 -0.28477,-0.0119 -0.75972,-0.6342 -0.75093,-0.94054 0.36614,-12.75445 0.71269,-25.50991 1.06603,-38.26487 0.0437,-1.57559 1.347,-2.80888 2.92232,-2.76524 z" style="fill:#a5591d;fill-opacity:1;stroke:#000000;stroke-width:0.53149605;stroke-linecap:round;stroke-linejoin:miter;stroke-miterlimit:4;stroke-opacity:1;stroke-dashoffset:0;display:inline"/>
      <path style="fill:#a5591d;fill-opacity:1;stroke:none;display:inline" d="m 166.92936,172.28292 34.7542,0.96278 c 1.57531,0.0436 2.80839,1.3472 2.76474,2.92278 0.34768,3.76512 -33.05036,5.04738 -33.05036,5.04738 0,0 -0.48338,18.49247 -0.45515,25.19828 -0.58314,2.83927 -2.20814,3.04823 -3.72592,3.52789 -1.21668,4.85194 -1.10239,4.37843 -4.30213,4.29002 -0.28477,-0.0119 -0.75972,-0.6342 -0.75093,-0.94054 0.36614,-12.75445 0.71269,-25.50992 1.06603,-38.26488 0.0437,-1.57558 1.347,-2.80888 2.92232,-2.76524 z" id="path3777" inkscape:connector-curvature="0" sodipodi:nodetypes="cscccccscsc"/>
      <path style="fill:#d3a325;fill-opacity:1;stroke:none;display:inline" d="m 166.92936,172.28292 23.17641,0.54541 c 3.7401,3.7837 -13.97116,6.12075 -17.71437,6.48829 -1.42846,0.20721 -2.76698,1.5199 -3.21054,3.07272 -0.28566,13.53658 -0.11857,22.15749 -1.8069,21.88234 -1.21669,4.85194 -1.1024,4.37843 -4.30214,4.29002 -0.28477,-0.0119 -0.75972,-0.63421 -0.75092,-0.94053 0.36613,-12.75446 0.5556,-19.83965 0.90895,-32.59461 0.0436,-1.57559 1.34699,-2.80888 2.92231,-2.76524 z" id="path3003" inkscape:connector-curvature="0" sodipodi:nodetypes="ccccccscsc"/>
      <path sodipodi:nodetypes="csccccscsc" inkscape:connector-curvature="0" id="path3005" d="m 166.92936,172.28292 10.53979,0.29198 c 1.57532,0.0436 2.80839,1.34721 2.76474,2.92278 -0.0758,0.9353 -3.54101,1.40867 -7.9673,1.808 -3.0342,1.1118 -3.97434,2.92608 -4.76398,5.06465 -1.34792,6.10375 -0.72037,7.84516 -3.92011,7.75675 -0.28477,-0.0119 -0.75972,-0.63421 -0.75092,-0.94054 0.36613,-12.75445 0.0449,-1.40495 0.39826,-14.15991 0.0437,-1.57558 1.347,-2.80888 2.92232,-2.76524 z" style="fill:#f1dd48;fill-opacity:1;stroke:none;display:inline"/>
      <path style="fill:#fffea3;fill-opacity:1;stroke:none;display:inline" d="m 166.92936,172.28292 4.2884,0.1188 c 5.99652,0.023 -3.14512,4.36496 -3.67218,4.89962 -0.80594,0.81758 -4.59478,8.41708 -4.52765,5.15815 0.36614,-12.75446 -0.14143,5.3221 0.21191,-7.43286 0.0437,-1.57558 1.347,-2.80888 2.92232,-2.76524 z" id="path3007" inkscape:connector-curvature="0" sodipodi:nodetypes="ccsccsc"/>
      <path style="fill:#a5591d;fill-opacity:1;stroke:#000000;stroke-width:0.53149605;stroke-linecap:round;stroke-linejoin:miter;stroke-miterlimit:4;stroke-opacity:1;stroke-dashoffset:0;display:inline" d="m 158.30995,434.83273 0,-34.77339 c 0,-1.57619 1.2687,-2.8451 2.84462,-2.8451 3.75341,-0.45188 5.95967,32.90346 5.95967,32.90346 0,0 14.21108,2.92069 20.9124,2.70677 1.24019,0.28176 3.60849,0.62061 5.07583,0.78909 4.88295,1.08205 7.24437,0.86959 7.2446,4.07109 -0.004,0.28504 -0.61282,0.77713 -0.91922,0.77681 -12.75756,-0.0128 -25.51558,-0.006 -38.27327,-0.006 -1.57593,0 -2.84463,-1.26891 -2.84463,-2.8451 z" id="path3779" inkscape:connector-curvature="0" sodipodi:nodetypes="cscccccscsc"/>
      <path sodipodi:nodetypes="cscccccscsc" inkscape:connector-curvature="0" id="path3781" d="m 158.30996,434.83274 0,-34.77339 c 0,-1.57619 1.2687,-2.8451 2.84462,-2.8451 3.75341,-0.45188 5.95966,32.90347 5.95966,32.90347 0,0 9.09187,-0.0289 15.79319,-0.24286 0.96198,1.28352 4.94394,1.62237 5.46535,3.12653 6.60789,0.91508 12.47486,1.0922 11.9743,4.68327 -0.004,0.28504 -0.61282,0.77713 -0.91923,0.77682 -12.75755,-0.0128 -25.51557,-0.006 -38.27327,-0.006 -1.57592,0 -2.84462,-1.26892 -2.84462,-2.84511 z" style="fill:#a5591d;fill-opacity:1;stroke:none;display:inline"/>
      <path sodipodi:nodetypes="ccccccscsc" inkscape:connector-curvature="0" id="path3783" d="m 158.30996,434.83274 -0.0966,-29.95327 c 3.67806,-3.84409 6.5042,20.56537 6.97517,24.2976 0.24664,1.42241 1.59568,2.72429 3.15992,3.12475 13.53701,-0.0893 18.29591,-0.49515 18.06766,1.20045 4.88294,1.08205 4.40653,0.98089 4.40676,4.18239 -0.004,0.28504 -0.61282,0.77713 -0.91922,0.77682 -12.75756,-0.0128 -15.99146,-0.006 -28.74915,-0.006 -1.57593,0 -2.84463,-1.26892 -2.84463,-2.84511 z" style="fill:#d3a325;fill-opacity:1;stroke:none;display:inline"/>
      <path style="fill:#f1dd48;fill-opacity:1;stroke:none;display:inline" d="m 158.30996,434.83274 0,-12.80118 c 0,-1.57619 1.2687,-2.84511 2.84462,-2.84511 0.93687,0.0499 1.50592,5.75682 2.02759,10.1711 1.19519,3.00275 2.00087,3.89245 7.35499,4.62268 6.1377,1.17858 7.86077,0.50293 7.861,3.70443 -0.004,0.28504 -0.61282,0.77713 -0.91922,0.77682 -12.75756,-0.0128 -3.56666,-0.006 -16.32436,-0.006 -1.57592,0 -2.84462,-1.26892 -2.84462,-2.84511 z" id="path3785" inkscape:connector-curvature="0" sodipodi:nodetypes="csccccscsc"/>
      <path sodipodi:nodetypes="ccsccsc" inkscape:connector-curvature="0" id="path3787" d="m 158.30996,434.83274 0,-4.29077 c -0.14305,-5.99586 4.44963,3.02356 4.99858,3.5357 0.83944,0.78312 8.53965,4.36066 5.28066,4.38381 -12.75756,-0.0128 5.32308,-0.006 -7.43462,-0.006 -1.57592,0 -2.84462,-1.26892 -2.84462,-2.84511 z" style="fill:#fffea3;fill-opacity:1;stroke:none;display:inline"/>
      <path sodipodi:nodetypes="csccc" inkscape:connector-curvature="0" id="path3801" d="m 158.21598,407.24968 0,5.50969 c 0,0.8235 0.95641,1.48645 2.14442,1.48645 0.85196,-3.0001 -2.01719,-10.32279 -2.14442,-7.4026 z" style="fill:#f1dd48;fill-opacity:1;stroke:none;display:inline"/>
      <path sodipodi:nodetypes="cscccccscsc" inkscape:connector-curvature="0" id="path3874" d="m 556.2784,434.83273 0,-34.77339 c 0,-1.57619 -1.26871,-2.8451 -2.84467,-2.8451 -3.7534,-0.45188 -5.95961,32.90346 -5.95961,32.90346 0,0 -14.21106,2.92069 -20.91249,2.70677 -1.24007,0.28176 -3.60849,0.62061 -5.07585,0.78909 -4.88287,1.08205 -7.24434,0.86959 -7.24448,4.07109 0,0.28504 0.61281,0.77713 0.91921,0.77681 12.75745,-0.0128 25.51562,-0.006 38.27322,-0.006 1.57596,0 2.84467,-1.26891 2.84467,-2.8451 z" style="fill:#a5591d;fill-opacity:1;stroke:#000000;stroke-width:0.53149605;stroke-linecap:round;stroke-linejoin:miter;stroke-miterlimit:4;stroke-opacity:1;stroke-dashoffset:0;display:inline"/>
      <path style="fill:#a5591d;fill-opacity:1;stroke:none;display:inline" d="m 556.27842,434.83274 0,-34.77339 c 0,-1.57619 -1.26871,-2.8451 -2.84468,-2.8451 -3.75339,-0.45188 -5.9596,32.90347 -5.9596,32.90347 0,0 -9.09183,-0.0289 -15.79327,-0.24286 -0.96188,1.28352 -4.94384,1.62237 -5.46533,3.12653 -6.60786,0.91508 -12.47487,1.0922 -11.97422,4.68327 0,0.28504 0.6128,0.77713 0.91921,0.77682 12.75745,-0.0128 25.51562,-0.006 38.27321,-0.006 1.57597,0 2.84468,-1.26892 2.84468,-2.84511 z" id="path3876" inkscape:connector-curvature="0" sodipodi:nodetypes="cscccccscsc"/>
      <path style="fill:#d3a325;fill-opacity:1;stroke:none;display:inline" d="m 556.27842,434.83274 0.0964,-29.95327 c -3.67811,-3.84409 -6.50421,20.56537 -6.97523,24.2976 -0.24657,1.42241 -1.59567,2.72429 -3.15987,3.12475 -13.537,-0.0893 -18.29595,-0.49515 -18.06768,1.20045 -4.88287,1.08205 -4.40646,0.98089 -4.40675,4.18239 0,0.28504 0.61281,0.77713 0.91921,0.77682 12.7576,-0.0128 15.99148,-0.006 28.74922,-0.006 1.57583,0 2.84454,-1.26892 2.84454,-2.84511 z" id="path3878" inkscape:connector-curvature="0" sodipodi:nodetypes="ccccccscsc"/>
      <path sodipodi:nodetypes="csccccscsc" inkscape:connector-curvature="0" id="path3880" d="m 556.27842,434.83274 0,-12.80118 c 0,-1.57619 -1.26871,-2.84511 -2.84468,-2.84511 -0.93679,0.0499 -1.50592,5.75682 -2.02756,10.1711 -1.19512,3.00275 -2.0009,3.89245 -7.35493,4.62268 -6.13769,1.17858 -7.86083,0.50293 -7.86097,3.70443 0,0.28504 0.6128,0.77713 0.91921,0.77682 12.75745,-0.0128 3.56666,-0.006 16.32425,-0.006 1.57597,0 2.84468,-1.26892 2.84468,-2.84511 z" style="fill:#f1dd48;fill-opacity:1;stroke:none;display:inline"/>
      <path style="fill:#fffea3;fill-opacity:1;stroke:none;display:inline" d="m 556.27842,434.83274 0,-4.29077 c 0.14306,-5.99586 -4.44957,3.02356 -4.99857,3.5357 -0.83938,0.78312 -8.53971,4.36066 -5.28073,4.38381 12.7576,-0.0128 -5.32297,-0.006 7.43462,-0.006 1.57597,0 2.84468,-1.26892 2.84468,-2.84511 z" id="path3882" inkscape:connector-curvature="0" sodipodi:nodetypes="ccsccsc"/>
      <path style="fill:#f1dd48;fill-opacity:1;stroke:none;display:inline" d="m 556.37243,407.24968 0,5.50969 c 0,0.8235 -0.9565,1.48645 -2.1444,1.48645 -0.852,-3.0001 2.01707,-10.32279 2.1444,-7.4026 z" id="path3884" inkscape:connector-curvature="0" sodipodi:nodetypes="csccc"/>
      <path style="fill:#b37218;fill-opacity:1;stroke:none;display:inline" d="m 287.52854,420.24195 c 5.28798,-0.007 27.25119,0.83622 39.01384,4.78629 20.89298,7.01617 31.47467,15.0383 30.87346,14.58649 -3.69187,-2.7745 -8.42751,-3.78005 -18.80871,-5.22813 -3.87598,-0.54067 -10.14502,-2.75518 -11.01083,-3.09142 -4.12235,-1.601 -9.10394,-1.84375 -12.50108,-2.11427 -3.31551,-0.26402 -6.11642,-0.24017 -10.2121,-0.4918 -3.96513,-0.2436 -8.85211,-0.46537 -12.83951,-0.25387 -2.09444,0.11104 -8.11874,-0.0128 -10.21851,0.0539 -1.93078,0.0613 -8.64276,-0.58391 -10.5703,-0.4638 -4.7064,0.29311 -5.8947,0.14234 -10.53002,0.70418 -1.87675,0.22752 -22.89231,0.65588 -24.73314,0.95999 -47.61309,6.77671 -60.60119,1.27239 -36.19461,1.42903 11.60853,-1.40163 38.71273,-10.81052 87.73151,-10.87652 z" id="path3840" inkscape:connector-curvature="0" sodipodi:nodetypes="cssssssssssccsc"/>
      <path sodipodi:nodetypes="cccsssssssssssssssssccccccccccccccccccccccccccccccccccccccccccccccccccccccccc" inkscape:connector-curvature="0" id="path3830" d="m 176.20901,183.46196 c 40.22977,1.21388 138.05044,-24.81175 165.91234,-0.33433 l 14.36541,254.98336 c -0.52601,-0.40003 -0.40393,0.14207 -0.94089,-0.22191 -6.88376,-4.66624 -14.62196,-6.53896 -22.05378,-9.92323 -2.15338,-0.9806 -7.06546,-2.08908 -9.05377,-2.90462 -3.8726,-1.58842 -8.19178,-1.5314 -12.10219,-2.47248 -2.82973,-0.68102 -4.63714,-0.18436 -7.51477,-0.63801 -8.06278,-1.27108 -19.64629,-0.50433 -27.60139,-0.55319 -2.09737,-0.0128 -4.87993,-0.49534 -6.9797,-0.42877 -1.93077,0.0613 -3.17884,0.66569 -5.10638,0.78573 -4.70641,0.29311 -9.39565,0.74969 -14.03098,1.31162 -1.87675,0.22752 -3.06232,-0.55142 -4.91895,-0.29323 -2.9065,0.40419 -6.46773,1.86498 -9.30957,2.32009 -5.15101,0.82493 -10.18043,1.70921 -15.03251,2.56467 -2.83654,0.50011 -5.78306,0.47851 -8.48724,0.94133 -2.75778,0.47198 -5.27037,1.42726 -7.8671,1.82347 -8.57516,1.30833 -16.20777,2.10158 -22.47235,1.70709 -1.36041,-0.0856 -2.82689,-0.90983 -4.05392,-1.11442 -1.28796,-0.21475 -2.32946,0.1837 -3.46063,-0.17762 -4.14054,-1.32258 -7.19685,-3.68048 -8.92179,-7.46445 l -0.68696,-4.11434 0.57701,-4.14652 -0.12689,-6.12058 -0.27815,-2.98346 0.41622,-3.15193 -0.17724,-3.95672 -0.20121,-2.84135 0.32786,-2.78629 0.1191,-5.29424 -0.0177,-2.17365 0.12519,-2.60514 0.13059,-3.55527 0.43957,-2.4132 -0.3206,-2.87335 -0.0393,-9.03801 0.55826,-1.72435 -0.46956,-2.21712 0.39187,-10.59746 0.28606,-2.46981 -0.16324,-2.98728 0.1722,-7.05155 0.36604,-3.90304 0.10336,-6.7736 0.56559,-1.87947 -0.46554,-2.56594 0.0305,-10.4234 -0.46034,-2.89753 0.90995,-3.44938 -0.16988,-8.548 0.16307,-3.12416 -0.0128,-3.53436 -0.42043,-7.66524 0.83533,-8.30652 -0.27274,-4.49781 0.4573,-3.70319 0.18421,-8.18564 0.37483,-3.24766 -0.21731,-3.75192 0.21107,-9.37938 0.18733,-2.27792 -0.0452,-4.03568 c 1.26623,-2.26739 -0.2097,-4.96152 0.16146,-7.17396 l 0.41392,-2.89123 0.17427,-2.49781 -0.31959,-6.54835 c 0.007,-1.3067 0.49808,-2.91256 0.53822,-4.21853 l -0.29233,-6.70717 -0.15641,-2.77184 0.25208,-2.98038 -0.17695,-3.21803 -0.23339,-3.09669 0.33307,-4.03022 -0.50513,-2.70292 0.96266,-2.34617 c -0.44424,-3.04612 3.27712,-1.53332 5.09119,-1.47634 z" style="fill:#b97c2c;fill-opacity:1;stroke:#000000;stroke-width:0.35433072;stroke-miterlimit:4;stroke-opacity:1;stroke-dasharray:none;display:inline"/>
      <path sodipodi:nodetypes="cccsssssssssssscccccccccccccccccccccccccccccccccccccccccccccccccccccc" inkscape:connector-curvature="0" id="path3826" d="m 179.04476,180.62574 c 40.22977,1.21387 146.72799,-25.12545 174.58989,-0.64804 l 2.60332,258.55266 c -16.52523,-11.50342 -42.26225,-20.62426 -72.22266,-19.03534 -2.09446,0.11104 -7.62136,-0.28441 -9.72113,-0.21785 -1.93077,0.0613 -4.86588,-0.17797 -6.79342,-0.0579 -4.70641,0.29311 -7.07597,0.9606 -11.71129,1.52253 -1.87676,0.22752 -7.91256,0.0813 -9.76919,0.33952 -2.9065,0.40419 -5.8351,1.86498 -8.67695,2.32009 -5.151,0.82493 -10.3913,1.4983 -15.24338,2.35376 -2.83654,0.50011 -5.78306,0.68943 -8.48725,1.15224 -2.75777,0.47198 -6.53563,1.84909 -9.13236,2.2453 -8.57516,1.30833 -12.8337,0.83609 -19.09828,0.4416 -1.36041,-0.0857 -2.82689,-0.90983 -4.05392,-1.11442 -1.28796,-0.21475 -2.32946,0.1837 -3.46063,-0.17762 -4.14054,-1.32258 -7.19685,-3.68049 -8.92179,-7.46445 l -0.21809,-6.51583 0.277,-3.09625 -0.12704,-3.56994 0.47192,-2.23326 -0.33385,-3.90213 0.12279,-5.45709 0.39885,-2.39124 -0.27221,-3.2364 0.1191,-5.29424 0.28232,-2.32369 -0.17477,-2.45511 0.13059,-5.80583 0.73959,-2.71328 -0.62062,-2.57328 0.26079,-11.58865 0.55826,-1.72436 -0.46956,-2.21711 0.24186,-10.74749 0.7361,-3.06998 -0.61328,-2.38712 0.34155,-15.17754 0.56559,-1.87947 -0.46555,-2.56595 0.18056,-8.02278 0.73976,-1.69723 -0.59018,-4.94976 0.28016,-12.449 0.91314,-3.12416 -0.7633,-3.53436 0.26489,-11.77068 0.17729,-2.24724 0.007,-5.95376 0.18421,-8.18564 0.67485,-3.09763 -0.51734,-3.90195 0.21108,-9.37938 1.08741,-3.62827 -0.94533,-2.68533 0.16146,-7.17396 0.41392,-2.89124 -0.27577,-3.248 0.13045,-5.79815 0.0308,-2.0506 0.0574,-1.86786 0.1577,-7.00724 0.74367,-1.87161 -0.648,-2.38023 0.12308,-5.46861 0.21665,-2.04642 -0.11698,-2.37979 0.15751,-6.99959 c -0.44424,-3.04612 3.27712,-1.53332 5.09119,-1.47634 z" style="fill:#d7a55c;fill-opacity:1;stroke:#000000;stroke-width:0.35433072;stroke-miterlimit:4;stroke-opacity:1;stroke-dasharray:none;display:inline"/>
      <path style="fill:#f1d291;fill-opacity:1;stroke:#000000;stroke-width:0.35433072;stroke-miterlimit:4;stroke-opacity:1;stroke-dasharray:none;display:inline" d="m 181.8805,177.78951 c 40.22977,1.21388 138.05044,-24.81174 165.91234,-0.33433 l 8.19575,260.67494 c -5.71151,-5.98655 -14.54704,-8.71298 -22.55858,-12.36124 -2.15338,-0.98061 -6.09555,-3.01143 -8.08386,-3.82698 -3.87259,-1.58841 -8.4667,-2.173 -12.37711,-3.11409 -2.82973,-0.68102 -4.63714,-0.18435 -7.51477,-0.638 -8.06278,-1.27109 -15.4677,-0.94133 -23.42281,-0.9902 -2.09736,-0.0128 -4.87992,-0.49533 -6.97969,-0.42877 -1.93078,0.0613 -3.17885,0.66569 -5.10639,0.78574 -4.7064,0.29311 -9.39565,0.74968 -14.03097,1.31161 -1.87676,0.22752 -3.06232,-0.55142 -4.91896,-0.29323 -2.9065,0.40419 -6.46773,1.86498 -9.30957,2.32009 -5.151,0.82493 -10.18043,1.70921 -15.0325,2.56467 -2.83654,0.50011 -5.78307,0.47852 -8.48725,0.94133 -2.75778,0.47198 -5.27036,1.42726 -7.8671,1.82347 -8.57515,1.30833 -16.20776,2.10158 -22.47235,1.70709 -1.3604,-0.0856 -2.82688,-0.90983 -4.05391,-1.11442 -1.28797,-0.21475 -2.32947,0.1837 -3.46063,-0.17762 -4.14055,-1.32257 -7.19686,-3.68048 -8.9218,-7.46445 l 0.17304,-5.58885 0.57702,-4.14651 -0.1269,-6.12059 -0.27815,-2.98345 0.41622,-3.15194 -0.17723,-3.95672 -0.20121,-2.84134 0.32785,-2.7863 0.1191,-5.29423 -0.0177,-2.17366 0.1252,-2.60514 0.13058,-3.55527 0.43957,-2.4132 -0.32059,-2.87335 -0.0393,-9.03801 0.55826,-1.72435 -0.46956,-2.21712 0.39188,-10.59746 0.28605,-2.46981 -0.16324,-2.98728 0.1722,-7.05155 0.36604,-3.90304 0.10336,-6.7736 0.56559,-1.87947 -0.46554,-2.56594 0.0305,-10.4234 -0.46034,-2.89753 0.90995,-3.44938 -0.16988,-8.548 0.16307,-3.12416 -0.0128,-3.53436 -0.42042,-7.66524 0.83532,-8.30652 -0.27274,-4.49781 0.45731,-3.70319 0.18421,-8.18564 0.37483,-3.24766 -0.21732,-3.75191 0.21108,-9.37938 0.18733,-2.27793 -0.0452,-4.03568 c 1.26623,-2.26739 -0.20971,-4.96152 0.16145,-7.17396 l 0.41392,-2.89123 0.17427,-2.49781 -0.31959,-6.54834 c 0.007,-1.30671 0.49809,-2.91257 0.53823,-4.21853 l -0.29234,-6.70718 -0.15641,-2.77184 0.25209,-2.98038 -0.17695,-3.21803 -0.2334,-3.09669 0.33307,-4.03022 -0.50513,-2.70292 0.96267,-2.34617 c -0.44425,-3.04612 3.27711,-1.53332 5.09118,-1.47634 z" id="path3828" inkscape:connector-curvature="0" sodipodi:nodetypes="cccssssssssssssssssccccccccccccccccccccccccccccccccccccccccccccccccccccccccc"/>
      <path sodipodi:nodetypes="cccssssssssssssssssccccccccccccccccccccccccccccccccccccccccccccccccccccccccc" inkscape:connector-curvature="0" id="path3824" d="m 184.71625,174.95329 c 40.22977,1.21387 138.05044,-24.81175 165.91234,-0.33434 l 5.84542,263.24207 c -5.7115,-5.98654 -12.00116,-9.71537 -20.0127,-13.36364 -2.15338,-0.98061 -5.11774,-2.42464 -7.10605,-3.24018 -3.8726,-1.58842 -8.85782,-3.54215 -12.76823,-4.48324 -2.82974,-0.68102 -4.63714,-0.18435 -7.51477,-0.63801 -8.06278,-1.27108 -16.24995,-1.7237 -24.20505,-1.77257 -2.09736,-0.0128 -4.87993,-0.49533 -6.9797,-0.42876 -1.93077,0.0613 -3.17884,0.66569 -5.10638,0.78573 -4.7064,0.29311 -9.39565,0.74969 -14.03098,1.31161 -1.87675,0.22753 -3.06232,-0.55142 -4.91895,-0.29322 -2.9065,0.40419 -6.46773,1.86497 -9.30957,2.32009 -5.15101,0.82493 -10.18043,1.70921 -15.03251,2.56467 -2.83654,0.50011 -5.78306,0.47851 -8.48724,0.94133 -2.75778,0.47197 -5.27036,1.42726 -7.8671,1.82346 -8.57515,1.30834 -16.20776,2.10159 -22.47235,1.7071 -1.36041,-0.0857 -2.82689,-0.90983 -4.05391,-1.11443 -1.28797,-0.21474 -2.32947,0.18371 -3.46064,-0.17761 -4.14054,-1.32258 -7.19685,-3.68049 -8.92179,-7.46445 l 0.17304,-5.58885 0.57701,-4.14652 -0.1269,-6.12059 -0.27814,-2.98345 0.41622,-3.15194 -0.17724,-3.95671 -0.20121,-2.84135 0.32786,-2.78629 0.1191,-5.29424 -0.0177,-2.17365 0.1252,-2.60515 0.13059,-3.55526 0.43957,-2.4132 -0.3206,-2.87335 -0.0393,-9.03801 0.55826,-1.72436 -0.46956,-2.21712 0.39187,-10.59745 0.28606,-2.46981 -0.16324,-2.98728 0.1722,-7.05155 0.36604,-3.90305 0.10336,-6.77359 0.56559,-1.87947 -0.46555,-2.56595 0.0305,-10.42339 -0.46034,-2.89753 0.90995,-3.44939 -0.16988,-8.548 0.16307,-3.12415 -0.0128,-3.53436 -0.42043,-7.66524 0.83533,-8.30652 -0.27274,-4.49781 0.4573,-3.70319 0.18421,-8.18564 0.37483,-3.24766 -0.21732,-3.75192 0.21108,-9.37938 0.18733,-2.27793 -0.0452,-4.03567 c 1.26623,-2.2674 -0.2097,-4.96152 0.16146,-7.17396 l 0.41391,-2.89124 0.17428,-2.4978 -0.31959,-6.54835 c 0.007,-1.3067 0.49808,-2.91256 0.53822,-4.21853 l -0.29234,-6.70717 -0.1564,-2.77184 0.25208,-2.98038 -0.17695,-3.21804 -0.23339,-3.09669 0.33307,-4.03021 -0.50513,-2.70293 0.96266,-2.34616 c -0.44425,-3.04612 3.27712,-1.53332 5.09119,-1.47634 z" style="fill:#f1d291;fill-opacity:1;stroke:#000000;stroke-width:0.35433072;stroke-miterlimit:4;stroke-opacity:1;stroke-dasharray:none;display:inline"/>
      <path sodipodi:nodetypes="cssssssssssccsc" inkscape:connector-curvature="0" id="path3886" d="m 424.95558,420.24195 c -5.28796,-0.007 -27.25124,0.83622 -39.01392,4.78629 -20.89297,7.01617 -31.47469,15.0383 -30.87352,14.58649 3.69186,-2.7745 8.42756,-3.78005 18.80884,-5.22813 3.8759,-0.54067 10.14503,-2.75518 11.01078,-3.09142 4.12232,-1.601 9.10402,-1.84375 12.5011,-2.11427 3.31556,-0.26402 6.11642,-0.24017 10.21209,-0.4918 3.96509,-0.2436 8.85207,-0.46537 12.83955,-0.25387 2.09434,0.11104 8.11874,-0.0128 10.21847,0.0539 1.93072,0.0613 8.64279,-0.58391 10.57025,-0.4638 4.70649,0.29311 5.8948,0.14234 10.53012,0.70418 1.87669,0.22752 22.89227,0.65588 24.73309,0.95999 47.61303,6.77671 60.60118,1.27239 36.19462,1.42903 -11.60856,-1.40163 -38.71276,-10.81052 -87.73147,-10.87652 z" style="fill:#b37218;fill-opacity:1;stroke:none;display:inline"/>
      <path style="fill:#b97c2c;fill-opacity:1;stroke:#000000;stroke-width:0.35433072;stroke-miterlimit:4;stroke-opacity:1;stroke-dasharray:none;display:inline" d="m 528.42836,175.25312 c -40.22974,1.21388 -130.20381,-16.60291 -158.0656,7.87451 l -14.32711,255.25259 c 7.26944,-5.52827 14.94475,-6.76611 22.9563,-10.41437 2.15346,-0.98061 7.06554,-2.08908 9.05383,-2.90462 3.87249,-1.58842 8.19176,-1.5314 12.10211,-2.47248 2.82979,-0.68102 4.63715,-0.18436 7.51487,-0.63801 8.06273,-1.27108 19.64619,-0.50433 27.60131,-0.55319 2.09732,-0.0128 4.87989,-0.49534 6.97976,-0.42877 1.93072,0.0613 3.17873,0.66569 5.10633,0.78573 4.70635,0.29311 9.39568,0.74969 14.03099,1.31162 1.8767,0.22752 3.06232,-0.55142 4.91889,-0.29323 2.90649,0.40419 6.46777,1.86498 9.30961,2.32009 5.15099,0.82493 10.18047,1.70921 15.03257,2.56467 2.83646,0.50011 5.78308,0.47851 8.48725,0.94133 2.75776,0.47198 5.27038,1.42726 7.86707,1.82347 8.57515,1.30833 16.20771,2.10158 22.47229,1.70709 1.36045,-0.0856 2.82696,-0.90983 4.05399,-1.11442 1.28799,-0.21475 2.32942,0.1837 3.4606,-0.17762 4.14061,-1.32258 7.19684,-3.68048 8.92182,-7.46445 l 0.68696,-4.11434 -0.57707,-4.14652 0.12761,-6.12058 0.27819,-2.98346 -0.41629,-3.15193 0.17723,-3.95672 0.20134,-2.84135 -0.32795,-2.78629 -0.11911,-5.29424 0.0184,-2.17365 -0.12478,-2.60514 -0.13044,-3.55527 -0.43954,-2.4132 0.32058,-2.87335 0.0397,-9.03801 -0.55822,-1.72435 0.4696,-2.21712 -0.3919,-10.59746 -0.28612,-2.46981 0.16334,-2.98728 -0.17228,-7.05155 -0.36609,-3.90304 -0.10351,-6.7736 -0.56559,-1.87947 0.46563,-2.56594 -0.0298,-10.4234 0.46038,-2.89753 -0.90999,-3.44938 0.16986,-8.548 -0.16305,-3.12416 0.0142,-3.53436 0.4204,-7.66524 -0.83527,-8.30652 0.27265,-4.49781 -0.45726,-3.70319 -0.18418,-8.18564 -0.37489,-3.24766 0.21736,-3.75192 -0.21112,-9.37938 -0.1873,-2.27792 0.0454,-4.03568 c -1.2663,-2.26739 0.2097,-4.96152 -0.16149,-7.17396 l -0.41388,-2.89123 -0.17426,-2.49781 0.31959,-6.54835 c -0.0142,-1.3067 -0.88489,-3.29945 -0.92502,-4.60541 l 0.21495,-5.9334 -0.38509,-3.54562 0.28938,-3.83153 -0.28726,-4.84295 -0.54021,-4.79898 -0.79727,-6.27415 -0.81017,-4.32785 -0.96259,-2.34617 c -1.16833,-2.84789 -3.27713,-1.53332 -5.09116,-1.47634 z" id="path3888" inkscape:connector-curvature="0" sodipodi:nodetypes="cccssssssssssssssssccccccccccccccccccccccccccccccccccccccccccccccccccccccscc"/>
      <path style="fill:#d7a55c;fill-opacity:1;stroke:#000000;stroke-width:0.35433072;stroke-miterlimit:4;stroke-opacity:1;stroke-dasharray:none;display:inline" d="m 526.7998,173.02049 c -40.22973,1.21387 -140.08853,-17.5202 -167.95048,6.95721 l -2.68017,258.5142 c 19.67913,-13.96498 42.33925,-20.5858 72.29962,-18.99688 2.09448,0.11104 7.62135,-0.28441 9.72108,-0.21785 1.93086,0.0613 4.86586,-0.17797 6.79346,-0.0579 4.70634,0.29311 7.07603,0.9606 11.71134,1.52253 1.8767,0.22752 7.91244,0.0813 9.76915,0.33952 2.9065,0.40419 5.83511,1.86498 8.67696,2.32009 5.15099,0.82493 10.39131,1.4983 15.24341,2.35376 2.83645,0.50011 5.78308,0.68943 8.48725,1.15224 2.75776,0.47198 6.53554,1.84909 9.13223,2.2453 8.5753,1.30833 12.83374,0.83609 19.09833,0.4416 1.36045,-0.0857 2.82695,-0.90983 4.05398,-1.11442 1.288,-0.21475 2.32943,0.1837 3.4606,-0.17762 4.14048,-1.32258 7.19684,-3.68049 8.92183,-7.46445 l 0.21807,-6.51583 -0.27705,-3.09625 0.1276,-3.56994 -0.47186,-2.23326 0.33376,-3.90213 -0.12335,-5.45709 -0.39885,-2.39124 0.27223,-3.2364 -0.1191,-5.29424 -0.2823,-2.32369 0.17483,-2.45511 -0.13045,-5.80583 -0.73956,-2.71328 0.6206,-2.57328 -0.26089,-11.58865 -0.55821,-1.72436 0.4696,-2.21711 -0.24189,-10.74749 -0.73616,-3.06998 0.61337,-2.38712 -0.34157,-15.17754 -0.56559,-1.87947 0.46549,-2.56595 -0.18049,-8.02278 -0.73985,-1.69723 0.59026,-4.94976 -0.28017,-12.449 -0.91311,-3.12416 0.76324,-3.53436 -0.26486,-11.77068 -0.17723,-2.24724 -0.0142,-5.95376 -0.18418,-8.18564 -0.67477,-3.09763 0.51724,-3.90195 -0.21098,-9.37938 -1.08751,-3.62827 0.94544,-2.68533 -0.16149,-7.17396 -0.41388,-2.89124 0.27563,-3.248 -0.13044,-5.79815 -0.0312,-2.0506 -0.0581,-1.86786 -0.15781,-7.00724 -0.74367,-1.87161 0.64811,-2.38023 -0.12336,-5.46861 -0.52617,-5.99266 -1.43092,-6.01651 -1.70485,-7.23172 c 0.44422,-3.04612 -3.27713,-1.53332 -5.0913,-1.47634 z" id="path3890" inkscape:connector-curvature="0" sodipodi:nodetypes="cccsssssssssssscccccccccccccccccccccccccccccccccccccccccccccccccccccc"/>
      <path sodipodi:nodetypes="cccssssssssssssssssccccccccccccccccccccccccccccccccccccccccccccccccccccccccc" inkscape:connector-curvature="0" id="path3892" d="m 524.56765,172.71934 c -40.22974,1.21388 -132.0146,-19.74157 -159.87641,4.73584 l -8.81113,261.09802 c 5.71148,-5.98655 15.16239,-9.13606 23.17394,-12.78432 2.15332,-0.98061 6.09558,-3.01143 8.08386,-3.82698 3.87264,-1.58841 8.46669,-2.173 12.37704,-3.11409 2.82979,-0.68102 4.63716,-0.18435 7.51487,-0.638 8.06274,-1.27109 15.46772,-0.94133 23.42284,-0.9902 2.09732,-0.0128 4.87989,-0.49533 6.97962,-0.42877 1.93072,0.0613 3.17887,0.66569 5.10633,0.78574 4.70649,0.29311 9.39568,0.74968 14.03099,1.31161 1.87684,0.22752 3.06232,-0.55142 4.91902,-0.29323 2.9065,0.40419 6.46777,1.86498 9.30962,2.32009 5.15099,0.82493 10.18033,1.70921 15.03243,2.56467 2.8366,0.50011 5.78308,0.47852 8.48725,0.94133 2.75776,0.47198 5.27037,1.42726 7.86707,1.82347 8.57515,1.30833 16.20784,2.10158 22.47243,1.70709 1.36031,-0.0856 2.82682,-0.90983 4.05384,-1.11442 1.288,-0.21475 2.32943,0.1837 3.46061,-0.17762 4.14061,-1.32257 7.19698,-3.68048 8.92182,-7.46445 l -0.17298,-5.58885 -0.57707,-4.14651 0.12761,-6.12059 0.27818,-2.98345 -0.41628,-3.15194 0.17723,-3.95672 0.20134,-2.84134 -0.32796,-2.7863 -0.1191,-5.29423 0.0184,-2.17366 -0.12477,-2.60514 -0.13044,-3.55527 -0.43954,-2.4132 0.32058,-2.87335 0.0397,-9.03801 -0.55822,-1.72435 0.4696,-2.21712 -0.3919,-10.59746 -0.28613,-2.46981 0.16334,-2.98728 -0.17227,-7.05155 -0.36609,-3.90304 -0.10351,-6.7736 -0.56559,-1.87947 0.46563,-2.56594 -0.0298,-10.4234 0.46038,-2.89753 -0.90999,-3.44938 0.16986,-8.548 -0.16306,-3.12416 0.0142,-3.53436 0.4204,-7.66524 -0.83527,-8.30652 0.27266,-4.49781 -0.45726,-3.70319 -0.18419,-8.18564 -0.37488,-3.24766 0.21736,-3.75191 -0.21112,-9.37938 -0.1873,-2.27793 0.0454,-4.03568 c -1.2663,-2.26739 0.2097,-4.96152 -0.1615,-7.17396 l -0.41387,-2.89123 -0.17426,-2.49781 0.31959,-6.54834 c -0.0142,-1.30671 -0.4981,-2.91257 -0.53823,-4.21853 l 0.29237,-6.70718 0.15639,-2.77184 -0.2521,-2.98038 0.17695,-3.21803 0.23338,-3.09669 -1.26148,-5.1135 -1.04213,-5.87538 -2.12313,-5.2865 c 0.44422,-3.04612 -3.66392,0.4011 -5.47795,0.45808 z" style="fill:#f1d291;fill-opacity:1;stroke:#000000;stroke-width:0.35433072;stroke-miterlimit:4;stroke-opacity:1;stroke-dasharray:none;display:inline"/>
      <path style="fill:#f1d291;fill-opacity:1;stroke:#000000;stroke-width:0.35433072;stroke-miterlimit:4;stroke-opacity:1;stroke-dasharray:none;display:inline" d="m 522.57693,170.60743 c -40.22974,1.21387 -132.85962,-20.46589 -160.72144,4.01152 l -5.77545,263.1209 c 0.15313,-0.1605 0.35784,-0.23098 0.51264,-0.38904 5.61862,-5.73708 11.63333,-9.30298 19.43011,-12.85343 2.15333,-0.98057 5.11766,-2.42464 7.10594,-3.24018 3.87264,-1.58842 8.85788,-3.54215 12.76823,-4.48324 2.8298,-0.68102 4.63716,-0.18435 7.51487,-0.63801 8.06274,-1.27108 16.24996,-1.7237 24.20508,-1.77257 2.09732,-0.0128 4.8799,-0.49533 6.97962,-0.42876 1.93072,0.0613 3.17888,0.66569 5.10633,0.78573 4.70649,0.29311 9.39568,0.74969 14.03099,1.31161 1.87684,0.22753 3.06232,-0.55142 4.91903,-0.29322 2.9065,0.40419 6.46777,1.86497 9.30961,2.32009 5.15099,0.82493 10.18033,1.70921 15.03243,2.56467 2.8366,0.50011 5.78308,0.47851 8.48725,0.94133 2.75776,0.47197 5.27038,1.42726 7.86707,1.82346 8.57515,1.30834 16.20785,2.10159 22.47244,1.7071 1.3603,-0.0857 2.82681,-0.90983 4.05384,-1.11443 1.28799,-0.21474 2.32942,0.18371 3.4606,-0.17761 4.14062,-1.32258 7.19698,-3.68049 8.92183,-7.46445 l -0.17298,-5.58885 -0.57708,-4.14652 0.12761,-6.12059 0.27819,-2.98345 -0.41629,-3.15194 0.17723,-3.95671 0.20134,-2.84135 -0.32795,-2.78629 -0.1191,-5.29424 0.0184,-2.17365 -0.12477,-2.60515 -0.13045,-3.55526 -0.43954,-2.4132 0.32058,-2.87335 0.0397,-9.03801 -0.55821,-1.72436 0.46959,-2.21712 -0.3919,-10.59745 -0.28612,-2.46981 0.16334,-2.98728 -0.17227,-7.05155 -0.3661,-3.90305 -0.1035,-6.77359 -0.56559,-1.87947 0.46563,-2.56595 -0.0298,-10.42339 0.46038,-2.89753 -0.90999,-3.44939 0.16986,-8.548 -0.16305,-3.12415 0.0142,-3.53436 0.4204,-7.66524 -0.83527,-8.30652 0.27265,-4.49781 -0.45726,-3.70319 -0.18418,-8.18564 -0.37489,-3.24766 0.21736,-3.75192 -0.21112,-9.37938 -0.1873,-2.27793 0.0454,-4.03567 c -1.2663,-2.2674 0.20971,-4.96152 -0.16149,-7.17396 l -0.41388,-2.89124 -0.17426,-2.4978 0.31959,-6.54835 c -0.0142,-1.3067 -0.4981,-2.91256 -0.53822,-4.21853 l 0.29236,-6.70717 0.15639,-2.77184 -0.25209,-2.98038 0.17695,-3.21804 0.23338,-3.09669 -1.10665,-2.86956 -0.50079,-3.70882 -1.78029,-4.30086 -0.80691,-3.30696 c -0.32937,-3.97464 -3.27713,-1.53331 -5.09115,-1.47634 z" id="path3894" inkscape:connector-curvature="0" sodipodi:nodetypes="cccssssssssssssssssscccccccccccccccccccccccccccccccccccccccccccccccccccccccccc"/>
      <path sodipodi:nodetypes="csssssssssssssc" inkscape:connector-curvature="0" id="path3834" d="m 354.91733,437.87479 c -6.06768,-3.4666 -14.46252,-5.16208 -21.23498,-7.72022 -1.04632,-0.39522 -5.83829,-1.49978 -6.85768,-1.84608 -5.3512,-1.81791 -6.19631,-1.72672 -12.62941,-2.50332 -3.30204,-0.39863 -6.73827,-0.71811 -10.83395,-0.96974 -3.96513,-0.2436 -9.40186,-0.33771 -13.38926,-0.12621 -2.09444,0.11104 -9.27091,0.26553 -11.37068,0.3321 -1.93077,0.0613 -5.87395,-0.63627 -7.80149,-0.51616 -4.7064,0.29311 -6.15954,-0.13925 -10.79487,0.42263 -1.87675,0.22752 -9.1039,1.36447 -10.96054,1.62273 -2.9065,0.40419 -7.75959,1.04006 -10.60143,1.49517 -5.15101,0.82493 -10.66624,1.4983 -15.51831,2.35376 -2.83654,0.50011 -6.33292,0.3228 -9.0371,0.78562 -2.75778,0.47198 -6.90219,1.11583 -9.49893,1.51203 -8.57515,1.30834 -10.08444,0.74443 -16.34903,0.34994" style="fill:none;stroke:#000000;stroke-width:0.35433072;stroke-miterlimit:4;stroke-opacity:1;stroke-dasharray:none;display:inline"/>
      <path style="fill:none;stroke:#000000;stroke-width:0.35433072;stroke-miterlimit:4;stroke-opacity:1;stroke-dasharray:none;display:inline" d="m 352.85935,437.10668 c -8.18504,-3.49727 -8.28192,-1.4851 -16.70267,-4.66583 -1.04632,-0.39522 -6.38814,-1.59143 -7.40753,-1.93773 -5.3512,-1.81791 -7.02108,-2.00171 -13.45419,-2.77831 -3.30204,-0.39863 -6.92156,-0.80976 -11.01724,-1.06139 -3.96512,-0.2436 -7.66066,-0.52103 -11.64805,-0.30953 -2.09444,0.11104 -6.79657,0.17388 -8.89634,0.24044 -1.93077,0.0613 -10.91427,-0.63626 -12.84181,-0.51615 -4.70641,0.29311 -2.95206,0.0441 -7.58738,0.60595 -1.87676,0.22752 -10.57019,0.81452 -12.42682,1.07278 -2.9065,0.4042 -8.12618,0.85674 -10.96802,1.31186 -5.151,0.82493 -10.48294,1.40662 -15.33502,2.26209 -2.83654,0.50011 -7.15769,0.3228 -9.86187,0.78562 -2.75778,0.47197 -7.72697,0.7492 -10.32371,1.1454" id="path3836" inkscape:connector-curvature="0" sodipodi:nodetypes="cssssssssssssc"/>
      <path sodipodi:nodetypes="csssssssssc" inkscape:connector-curvature="0" id="path3838" d="m 351.18472,436.54368 c -2.96604,-1.4083 -10.27297,-1.38555 -15.02804,-2.91645 -1.06465,-0.34275 -7.57949,-2.04972 -8.59889,-2.39603 -5.35119,-1.8179 -6.37958,-1.36009 -12.81268,-2.13669 -3.30204,-0.39863 -5.82186,-0.25982 -9.91754,-0.51145 -3.96512,-0.2436 -7.66065,-0.52102 -11.64805,-0.30953 -2.09444,0.11104 -6.79656,0.17388 -8.89633,0.24044 -1.93078,0.0613 -10.91428,-0.63626 -12.84182,-0.51615 -4.70641,0.29311 -2.95206,0.0441 -7.58738,0.60595 -1.87676,0.22752 -12.76961,0.17291 -14.62624,0.43118 -2.9065,0.40419 -10.50887,0.49011 -13.35071,0.94522" style="fill:none;stroke:#000000;stroke-width:0.35433072;stroke-miterlimit:4;stroke-opacity:1;stroke-dasharray:none;display:inline"/>
      <path style="fill:none;stroke:#000000;stroke-width:0.35433072;stroke-miterlimit:4;stroke-opacity:1;stroke-dasharray:none;display:inline" d="m 357.56671,437.87479 c 6.06764,-3.4666 14.46249,-5.16208 21.23496,-7.72022 1.04639,-0.39522 5.83837,-1.49978 6.85768,-1.84608 5.3512,-1.81791 6.19639,-1.72672 12.62942,-2.50332 3.30209,-0.39863 6.7383,-0.71811 10.83397,-0.96974 3.96509,-0.2436 9.40192,-0.33771 13.38926,-0.12621 2.09448,0.11104 9.27091,0.26553 11.37064,0.3321 1.93086,0.0613 5.87396,-0.63627 7.80156,-0.51616 4.70634,0.29311 6.15952,-0.13925 10.79483,0.42263 1.8767,0.22752 9.10388,1.36447 10.96059,1.62273 2.9065,0.40419 7.75959,1.04006 10.60144,1.49517 5.15099,0.82493 10.66623,1.4983 15.51833,2.35376 2.83646,0.50011 6.33293,0.3228 9.0371,0.78562 2.75776,0.47198 6.90207,1.11583 9.4989,1.51203 8.57515,1.30834 10.08448,0.74443 16.34893,0.34994" id="path3910" inkscape:connector-curvature="0" sodipodi:nodetypes="csssssssssssssc"/>
      <path sodipodi:nodetypes="cssssssssssssc" inkscape:connector-curvature="0" id="path3912" d="m 359.62461,437.10668 c 8.18513,-3.49727 8.28197,-1.4851 16.70274,-4.66583 1.04638,-0.39522 6.38822,-1.59143 7.40752,-1.93773 5.3512,-1.81791 7.02117,-2.00171 13.4542,-2.77831 3.30209,-0.39863 6.92163,-0.80976 11.0173,-1.06139 3.96508,-0.2436 7.66063,-0.52103 11.64797,-0.30953 2.09448,0.11104 6.79658,0.17388 8.89645,0.24044 1.93071,0.0613 10.91422,-0.63626 12.84181,-0.51615 4.70635,0.29311 2.95202,0.0441 7.58733,0.60595 1.87669,0.22752 10.57024,0.81452 12.4268,1.07278 2.9065,0.4042 8.12612,0.85674 10.96796,1.31186 5.15113,0.82493 10.48305,1.40662 15.33515,2.26209 2.83645,0.50011 7.15756,0.3228 9.86187,0.78562 2.75777,0.47197 7.72685,0.7492 10.32368,1.1454" style="fill:none;stroke:#000000;stroke-width:0.35433072;stroke-miterlimit:4;stroke-opacity:1;stroke-dasharray:none;display:inline"/>
      <path style="fill:none;stroke:#000000;stroke-width:0.35433072;stroke-miterlimit:4;stroke-opacity:1;stroke-dasharray:none;display:inline" d="m 361.29926,436.54368 c 2.96605,-1.4083 10.2731,-1.38555 15.02809,-2.91645 1.06467,-0.34275 7.57951,-2.04972 8.59896,-2.39603 5.3512,-1.8179 6.37958,-1.36009 12.81261,-2.13669 3.30209,-0.39863 5.82193,-0.25982 9.9176,-0.51145 3.96508,-0.2436 7.66063,-0.52102 11.64797,-0.30953 2.09448,0.11104 6.79657,0.17388 8.89644,0.24044 1.93072,0.0613 10.91422,-0.63626 12.84182,-0.51615 4.70635,0.29311 2.95201,0.0441 7.58733,0.60595 1.87669,0.22752 12.76964,0.17291 14.62621,0.43118 2.9065,0.40419 10.50885,0.49011 13.35069,0.94522" id="path3914" inkscape:connector-curvature="0" sodipodi:nodetypes="csssssssssc"/>
      <path sodipodi:nodetypes="csssssssssssssssc" inkscape:connector-curvature="0" id="path3908" d="m 356.24852,438.4387 c 8.90509,-5.36737 15.32384,-6.56476 23.74459,-9.74549 1.04625,-0.39523 2.90564,-0.85817 3.9251,-1.20447 5.35119,-1.81791 8.76231,-2.64331 15.19534,-3.41991 6.49882,-0.78454 14.37596,-1.52587 22.48208,-1.09597 2.09448,0.11103 10.64553,-0.28442 12.74526,-0.21785 1.93072,0.0613 5.41571,-0.17798 7.34331,-0.0579 4.70634,0.29311 7.07589,0.31899 11.71121,0.88091 1.87683,0.22753 9.10402,0.90618 10.96058,1.16444 2.9065,0.4042 6.5683,1.13172 9.41014,1.58683 5.15099,0.82493 11.21609,1.86493 16.06819,2.72039 2.83645,0.50011 5.96627,0.41446 8.67043,0.87728 2.75777,0.47197 6.90221,1.66577 9.4989,2.06197 8.5753,1.30834 12.83374,0.83609 19.09833,0.4416 1.36045,-0.0856 2.82695,-0.90983 4.05398,-1.11442 0.72964,-0.12167 1.38016,-0.0465 2.01267,-0.0242 0.48406,0.017 0.95749,0.003 1.44793,-0.15341" style="fill:none;stroke:#000000;stroke-width:0.35433072;stroke-miterlimit:4;stroke-opacity:1;stroke-dasharray:none;display:inline"/>
      <path style="fill:none;stroke:#000000;stroke-width:0.35433072;stroke-miterlimit:4;stroke-opacity:1;stroke-dasharray:none;display:inline" d="m 356.12005,437.9387 c -0.88424,-0.53296 -1.7017,-0.33326 -2.53447,-0.79138 -7.55391,-4.15555 -13.20229,-5.47383 -20.78689,-8.33872 -1.04632,-0.39522 -3.21342,-0.97356 -4.23282,-1.31986 -5.35119,-1.81791 -8.76228,-2.64331 -15.19539,-3.41991 -6.49883,-0.78454 -14.37594,-1.52587 -22.48201,-1.09597 -2.09445,0.11103 -10.64554,-0.28442 -12.74531,-0.21785 -1.93078,0.0613 -5.41574,-0.17798 -7.34328,-0.0579 -4.7064,0.29311 -7.07597,0.31899 -11.71129,0.88091 -1.87676,0.22753 -9.10391,0.90618 -10.96055,1.16444 -2.90649,0.4042 -6.56824,1.13172 -9.41008,1.58683 -5.151,0.82493 -11.21608,1.86493 -16.06816,2.72039 -2.83654,0.50011 -5.96635,0.41446 -8.67053,0.87728 -2.75778,0.47197 -6.9022,1.66577 -9.49893,2.06197 -8.57516,1.30834 -12.8337,0.83609 -19.09828,0.4416 -1.36041,-0.0856 -2.82689,-0.90983 -4.05392,-1.11442 -0.72961,-0.12167 -1.38014,-0.0465 -2.01267,-0.0242 -0.48406,0.017 -0.95759,0.003 -1.44796,-0.15341" id="path3832" inkscape:connector-curvature="0" sodipodi:nodetypes="cssssssssssssssssc"/>
      <path style="fill:#f1d291;fill-opacity:1;stroke:#000000;stroke-width:0.35433072;stroke-miterlimit:4;stroke-opacity:1;stroke-dasharray:none" d="m 187.552,172.11706 c 5.17142,0.15604 11.33399,-0.15081 18.20661,-0.75216 1.13742,-0.0996 2.6859,0.11926 3.86094,0.004 1.98736,-0.19431 3.63507,-0.73592 5.72025,-0.96832 3.94479,-0.43965 8.05359,-0.94086 12.28464,-1.47858 1.60296,-0.20372 4.13727,-0.021 5.77305,-0.23384 2.15361,-0.28022 3.41988,-0.95887 5.62127,-1.24946 5.14186,-0.67872 10.39996,-1.37724 15.70826,-2.05601 1.477,-0.18885 2.89261,-0.0498 4.37597,-0.23471 1.00054,-0.12479 2.06746,-0.57483 3.06981,-0.69716 4.6299,-0.565 9.27442,-1.1013 13.89059,-1.58316 1.76877,-0.18463 4.77354,-0.10012 6.53156,-0.26732 0.94309,-0.0896 0.64411,-0.43778 1.58303,-0.52182 6.19345,-0.55427 12.28821,-0.98054 18.1771,-1.21457 1.18588,-0.0471 1.77596,0.37051 2.94426,0.3395 1.16005,-0.0308 3.55115,-0.3798 4.69214,-0.39367 7.25466,-0.0882 14.02302,0.15907 20.14515,0.88595 0.83733,0.0994 2.44582,0.46893 3.25856,0.58666 1.48206,0.21467 2.13932,0.19927 3.53578,0.4783 2.44014,0.48756 4.74582,1.46845 6.90378,2.17123 1.88357,0.6134 3.26299,0.92605 4.9127,1.64668 2.53541,1.10753 5.17586,2.73414 7.10616,4.42994 l 1.21705,266.75946 c -18.46289,-19.35194 -40.71238,-25.45968 -64.93924,-25.6085 -2.09736,-0.0128 -7.62135,-0.28442 -9.72112,-0.21785 -1.93077,0.0613 -4.86588,-0.17797 -6.79342,-0.0579 -4.70641,0.29311 -7.07597,0.9606 -11.7113,1.52253 -1.87675,0.22752 -7.91255,0.0813 -9.76918,0.33952 -2.9065,0.40419 -5.83511,1.86498 -8.67695,2.32009 -5.151,0.82493 -10.39131,1.49829 -15.24338,2.35376 -2.83654,0.50011 -5.78307,0.68943 -8.48725,1.15224 -2.75778,0.47198 -6.53563,1.84909 -9.13236,2.2453 -8.57516,1.30833 -12.8337,0.83609 -19.09829,0.4416 -1.3604,-0.0857 -2.82688,-0.90983 -4.05391,-1.11443 -1.28797,-0.21474 -2.32946,0.18371 -3.46063,-0.17761 -4.14054,-1.32258 -7.19685,-3.68049 -8.9218,-7.46445 l 0.17304,-7.68939 0.277,-3.09625 -0.12704,-3.56994 0.47192,-2.23326 -0.33385,-3.90213 0.12279,-5.45709 0.39884,-2.39124 -0.2722,-3.2364 0.1191,-5.29424 0.28232,-2.32369 -0.17477,-2.45511 0.13058,-5.80583 0.7396,-2.71328 -0.62062,-2.57327 0.26079,-11.58866 0.55826,-1.72435 -0.46956,-2.21712 0.24186,-10.74749 0.7361,-3.06998 -0.61328,-2.38712 0.34155,-15.17754 0.56559,-1.87947 -0.46555,-2.56595 0.18055,-8.02278 0.73977,-1.69723 -0.59018,-4.94976 0.28016,-12.449 0.91314,-3.12416 -0.7633,-3.53436 0.26489,-11.77068 0.17729,-2.24724 0.007,-5.95376 0.18421,-8.18564 0.67485,-3.09763 -0.51734,-3.90195 0.21108,-9.37938 1.08741,-3.62827 -0.94533,-2.68533 0.16145,-7.17396 0.41392,-2.89124 -0.27576,-3.248 0.13045,-5.79815 0.0308,-2.0506 0.0574,-1.86786 0.15769,-7.00724 0.74368,-1.87161 -0.648,-2.38023 0.12307,-5.46861 0.21665,-2.04642 -0.11697,-2.37979 0.15751,-6.99959 c 0.39848,-0.62406 1.12413,-1.17477 2.26741,-1.21325 0.68453,-0.023 2.31442,-0.27909 2.82378,-0.26309 z" id="path3813" inkscape:connector-curvature="0" sodipodi:nodetypes="cssssssssssssssssssssccssssssssssssccccccccccccccccccccccccccccccccccccccccccccccccccccscc"/>
      <path style="fill:url(#linearGradient3358);fill-opacity:1;stroke:none" d="m 304.10761,161.38193 c 22.57596,-0.73457 42.03409,1.47638 52.19248,10.4008 l 0.77711,265.037 c -3.87373,-4.11138 -9.1735,-7.78236 -13.72131,-10.87665 -12.40709,-8.44168 -26.26959,-12.00971 -40.05265,-13.46064 0,-12.00696 -1.51921,-25.4215 -1.49028,-36.43378 0.0281,-10.6578 0.5793,-21.49639 0.62535,-31.75185 0.0573,-12.74796 -1.41114,-24.87411 -1.34142,-37.90275 0.0642,-11.99835 2.17825,-24.83989 2.23912,-37.89092 0.0542,-11.62662 -1.43166,-21.26526 -1.3901,-34.31338 0.0377,-11.86129 2.11654,-26.47252 2.13642,-39.94407 0.0162,-10.9945 -0.81282,-20.462 -0.81282,-32.77993 z" id="path3803" inkscape:connector-curvature="0" sodipodi:nodetypes="cccscsssssscc"/>
      <path sodipodi:nodetypes="csssssssssssssssssccsssssssssssscccccccccccccccccccccccccccccccccccccccccccccccccccccc" inkscape:connector-curvature="0" id="path3896" d="m 520.90913,170.02788 c -1.21015,0.83829 -1.34513,1.36742 -3.78955,1.28952 -2.46667,-0.0786 -4.1511,0.54999 -6.89001,0.35026 -1.52379,-0.11118 -3.06913,-0.23739 -4.63658,-0.37716 -0.9989,-0.0891 -1.46325,0.12692 -2.48015,0.0272 -1.91313,-0.1874 -4.40179,-0.70323 -6.38,-0.92356 -11.96898,-1.33311 -25.14556,-3.21705 -39.71746,-5.02144 -0.5792,-0.0717 -3.44855,-0.0267 -4.02861,-0.0977 -0.87128,-0.10665 -1.54945,-0.56192 -2.42229,-0.66679 -6.58744,-0.79152 -13.21061,-1.52623 -19.74431,-2.13064 -0.90857,-0.0841 -1.30714,0.0377 -2.21202,-0.041 -0.74963,-0.0652 -2.00615,-0.33211 -2.7528,-0.39357 -5.52829,-0.45506 -10.9681,-0.80167 -16.24188,-0.99423 -0.98911,-0.0362 -1.66728,0.23826 -2.64419,0.21329 -1.22717,-0.0313 -2.74912,-0.35877 -3.95502,-0.37149 -9.28352,-0.0979 -17.91199,0.37444 -25.42133,1.68923 -1.11446,0.19511 -1.59421,0.51047 -2.65783,0.7436 -0.72881,0.15973 -2.05538,0.22691 -2.75912,0.40519 -6.47126,1.63936 -11.8625,4.07485 -15.79426,7.529 l 0.0317,265.89539 c 18.46288,-19.35194 40.71243,-25.45968 64.9392,-25.6085 2.09746,-0.0128 6.62134,0.33097 8.72121,0.39754 1.93072,0.0613 4.86586,-0.17797 6.79346,-0.0579 4.70634,0.29311 7.07589,0.9606 11.7112,1.52253 1.8767,0.22752 7.91259,0.0813 9.76915,0.33952 2.9065,0.40419 5.83512,1.86498 8.67696,2.32009 5.15099,0.82493 10.39131,1.49829 15.24341,2.35376 2.8366,0.50011 5.78308,0.68943 8.48725,1.15224 2.75776,0.47198 6.53568,1.84909 9.13238,2.2453 8.57515,1.30833 12.83373,0.83609 19.09832,0.4416 1.36031,-0.0857 2.82681,-0.90983 4.05384,-1.11442 1.288,-0.21475 2.32957,0.1837 3.46061,-0.17762 4.14061,-1.32258 7.19698,-3.68049 8.92182,-7.46445 l -0.17298,-7.68939 -0.27705,-3.09625 0.12761,-3.56994 -0.47187,-2.23326 0.33376,-3.90213 -0.12335,-5.45709 -0.39885,-2.39124 0.27223,-3.2364 -0.1191,-5.29424 -0.2823,-2.32369 0.17483,-2.45511 -0.13045,-5.80583 -0.73956,-2.71328 0.6206,-2.57327 -0.26089,-11.58866 -0.55821,-1.72435 0.4696,-2.21712 -0.24189,-10.74749 -0.73616,-3.06997 0.61337,-2.38713 -0.34156,-15.17754 -0.56559,-1.87947 0.46548,-2.56594 -0.18049,-8.02279 -0.73985,-1.69723 0.59026,-4.94976 -0.28017,-12.449 -0.91311,-3.12416 0.76324,-3.53436 -0.26486,-11.77068 -0.17723,-2.24724 -0.0142,-5.95376 -0.18418,-8.18564 -0.67477,-3.09763 0.51724,-3.90195 -0.21098,-9.37938 -1.08751,-3.62827 0.94544,-2.68533 -0.16149,-7.17396 -0.41388,-2.89124 0.27563,-3.248 -0.13044,-5.79815 -0.0312,-2.0506 -0.0581,-1.86786 -0.15781,-7.00724 -0.74367,-1.87161 0.64811,-2.38023 -0.12336,-5.46861 -0.21665,-2.04642 0.11627,-2.37979 -3.63897,-11.25533 c -0.94828,-2.73662 -2.03919,-0.75956 -3.46656,-0.16093 z" style="fill:#f1d291;fill-opacity:1;stroke:#000000;stroke-width:0.35433072;stroke-miterlimit:4;stroke-opacity:1;stroke-dasharray:none"/>
      <path sodipodi:nodetypes="cccscsssssscc" inkscape:connector-curvature="0" id="path3898" d="m 408.37653,161.38193 c -22.57594,-0.73457 -42.03414,1.47638 -52.19252,10.4008 l -0.26973,264.89746 c 3.87363,-4.11138 8.66609,-7.64282 13.21395,-10.73711 12.40711,-8.44168 25.79089,-12.64788 39.57404,-14.09881 0,-12.00696 1.99773,-24.78333 1.9688,-35.79561 -0.0283,-10.6578 -0.5792,-21.49639 -0.62528,-31.75185 -0.0567,-12.74796 1.41107,-24.87411 1.34145,-37.90275 -0.0638,-11.99835 -2.17828,-24.83989 -2.2391,-37.89092 -0.0539,-11.62662 1.43162,-21.26526 1.39008,-34.31338 -0.0383,-11.86129 -2.1166,-26.47252 -2.13645,-39.94407 -0.0156,-10.9945 0.81286,-20.462 0.81286,-32.77993 z" style="fill:url(#linearGradient3360);fill-opacity:1;stroke:none"/>
      <path sodipodi:nodetypes="ccccszsscc" inkscape:connector-curvature="0" id="path3958" d="m 219.71738,170.14446 -6.13344,0.75778 -4.15607,0.77926 -3.87894,-0.094 -7.84284,0.58037 c -2.18944,0.16202 4.23246,1.51545 5.73199,1.84142 1.49953,0.32596 5.61739,-0.45303 9.06641,-1.21611 2.33533,-0.51667 5.4411,0.0946 7.3472,-0.46108 4.14252,-1.20765 7.78759,-3.02902 4.16374,-2.69407 z" style="fill:#d7a55c;fill-opacity:1;stroke:none;display:inline"/>
      <path style="fill:#d7a55c;fill-opacity:1;stroke:none;display:inline" d="m 249.74478,166.24296 5.603,-0.5608 4.21783,-0.29986 2.74937,-0.68265 7.99486,-0.90467 c 2.1815,-0.24685 -2.99218,1.62503 -4.36011,2.32051 -1.36795,0.69548 -5.54875,0.9859 -9.07852,1.12215 -2.39001,0.0923 -3.86872,0.68756 -5.8534,0.63327 -4.31329,-0.11798 -9.21472,-0.36819 -5.62434,-0.96292 z" id="path3960" inkscape:connector-curvature="0" sodipodi:nodetypes="ccccszsscc"/>
      <path sodipodi:nodetypes="ccszsscc" inkscape:connector-curvature="0" id="path3962" d="m 317.79431,160.98329 c 3.07212,0.16231 4.09923,0.24476 6.45365,0.44019 l 5.8048,0.469 c 2.18829,0.1768 -0.19573,0.73572 -1.66204,1.18828 -1.46631,0.45256 -5.50193,0.0272 -9.00341,-0.43909 -2.37085,-0.31573 -2.54829,0.33103 -4.4948,-0.0601 -4.23032,-0.85026 -6.96853,-1.66357 -3.32934,-1.63866 2.84936,0.20068 3.38045,0.11898 6.23114,0.0404 z" style="fill:#b97c2c;fill-opacity:1;stroke:none;display:inline"/>
      <path style="fill:#d7a55c;fill-opacity:1;stroke:none;display:inline" d="m 182.52411,181.89166 -0.24502,7.65777 0.6148,3.20293 -0.98645,3.20064 0.28872,8.32266 c 0.0761,2.19447 1.93004,-4.33194 2.75902,-6.76875 0.82899,-2.43682 0.86189,-10.75216 0.0315,-15.60002 -0.72867,-4.25364 -2.28316,-5.53843 -2.36247,-1.8994 z" id="path3948" inkscape:connector-curvature="0" sodipodi:nodetypes="ccccszscc"/>
      <path sodipodi:nodetypes="ccccccszcc" inkscape:connector-curvature="0" id="path3950" d="m 180.16857,295.14325 0.54145,4.72799 -0.90964,1.77517 -0.004,7.80646 0.40496,2.84156 -0.62545,1.94439 0.21641,3.03904 c 0.15597,2.19025 0.94638,-1.36408 2.64723,-5.88725 1.70085,-4.52318 -1.81955,-26.97508 -2.23644,-19.19797 z" style="fill:#d7a55c;fill-opacity:1;stroke:none;display:inline"/>
      <path style="fill:#d7a55c;fill-opacity:1;stroke:none;display:inline" d="m 178.75413,345.03561 0.54144,2.29944 -0.79401,2.70032 0.20015,11.03653 0.40496,2.84156 -0.62545,1.94439 -0.15152,6.75974 c -0.0492,2.19524 1.84573,-1.56852 2.81075,-12.83801 0.96502,-11.2695 -1.81954,-26.97508 -2.23644,-19.19797 z" id="path3952" inkscape:connector-curvature="0" sodipodi:nodetypes="ccccccszcc"/>
      <path style="fill:#d7a55c;fill-opacity:1;stroke:none;display:inline" d="m 177.98499,382.04412 0.46866,2.90804 -0.54571,2.13915 -0.004,7.80647 0.40496,2.25916 -0.55267,2.0172 0.14363,3.54863 c 0.0888,2.194 1.67665,-0.24351 1.99215,-1.08256 0.31551,-0.83906 -0.56712,-2.12443 -0.59627,-3.25491 -0.0309,-1.19697 0.78049,-2.26437 0.73063,-4.0806 -0.0179,-0.64988 -0.19011,-2.68784 -0.22422,-3.33807 -0.266,-5.06838 -0.25616,-9.78814 -0.76364,-9.83475 z" id="path3954" inkscape:connector-curvature="0" sodipodi:nodetypes="ccccccszssscc"/>
      <path sodipodi:nodetypes="ccccccszcc" inkscape:connector-curvature="0" id="path3956" d="m 181.95511,225.64428 0.54144,2.29944 -1.19413,3.40066 -0.1,9.43577 0.60502,3.44184 -0.52542,3.44511 c 0.0828,1.85304 -0.92636,6.28673 0.14857,5.65922 1.89608,-1.10688 3.04611,-4.56994 2.91078,-12.93807 -0.13526,-8.36812 1.08135,-12.66831 -0.53592,-14.49574 z" style="fill:#d7a55c;fill-opacity:1;stroke:none;display:inline"/>
      <path sodipodi:nodetypes="cccccccc" inkscape:connector-curvature="0" id="path3986" d="m 211.53731,421.61453 c 2.49886,-0.0281 7.86839,-1.973 10.36739,-2.31728 4.20924,-0.53459 6.57051,-1.0298 10.66181,-1.49246 5.25449,-1.14065 3.35459,-2.17682 0.33404,-2.07216 -0.88745,-0.12522 -3.46089,0.67289 -4.55761,0.94771 -2.62831,-0.32111 -3.77254,10e-4 -6.59396,0.84711 -4.88769,1.36394 -3.27913,1.51708 -6.58065,1.54156 -1.17357,0.35557 -5.18033,3.16338 -3.63102,2.54552 z" style="fill:#d7a55c;fill-opacity:1;stroke:none;display:inline"/>
      <path style="fill:#b97c2c;fill-opacity:1;stroke:none;display:inline" d="m 335.57926,421.39879 4.67614,2.41092 c 1.95147,1.00614 -1.35351,-1.57864 -2.43271,-2.67029 -1.07864,-1.09152 -1.4645,-1.60342 -4.7709,-2.84641 -2.23889,-0.84166 -4.65751,-2.16015 -6.55785,-2.73485 -4.1303,-1.24892 -7.3782,-0.136 -3.75554,0.83602 2.75731,0.71576 4.58769,1.32379 6.49139,1.96624 2.29993,0.85635 4.81563,2.3543 6.34947,3.03837 z" id="path3988" inkscape:connector-curvature="0" sodipodi:nodetypes="cszssccc"/>
      <path style="fill:#d7a55c;fill-opacity:1;stroke:none;display:inline" d="m 478.21359,417.42398 c -2.49886,-0.0281 -4.99772,-0.68853 -7.49672,-1.03281 -4.20924,-0.53459 -7.55259,-1.78538 -11.34171,-2.62582 l -2.67567,-0.43234 c -2.16736,-0.35019 -0.35901,-0.75911 0.52858,-0.88425 0.88745,-0.12522 3.46089,0.6729 4.55761,0.94771 2.62832,-0.3211 3.77254,10e-4 6.59396,0.84711 4.8877,1.36394 6.67861,1.97043 9.98013,1.9949 1.17357,0.35558 1.40313,1.80336 -0.14618,1.1855 z" id="path3980" inkscape:connector-curvature="0" sodipodi:nodetypes="cccszcccc"/>
      <path sodipodi:nodetypes="ccszssccc" inkscape:connector-curvature="0" id="path3984" d="m 395.43362,414.57974 c -2.94748,0.8815 -3.94226,1.14968 -6.22503,1.75835 l -5.62386,1.90148 c -2.07987,0.70322 -0.0638,-1.14738 1.16507,-2.06723 1.2283,-0.91981 3.61699,-1.00343 7.07093,-1.74321 2.33879,-0.50092 3.06573,-1.26689 5.03019,-1.55391 4.26964,-0.62368 9.06489,-0.003 5.33829,0.42208 -2.75053,0.77038 -4.7778,0.92891 -6.75559,1.28243 z" style="fill:#b97c2c;fill-opacity:1;stroke:none;display:inline"/>
      <path sodipodi:nodetypes="ccccszscc" inkscape:connector-curvature="0" id="path3970" d="m 529.62623,181.89166 0.24501,7.65777 -0.61479,3.20293 0.98642,3.20064 -0.28868,8.32266 c -0.0766,2.19447 -1.93001,-4.33194 -2.75904,-6.76875 -0.82903,-2.43682 -0.86193,-10.75216 -0.0312,-15.60002 0.72864,-4.25364 2.2832,-5.53843 2.36246,-1.8994 z" style="fill:#d7a55c;fill-opacity:1;stroke:none;display:inline"/>
      <path style="fill:#d7a55c;fill-opacity:1;stroke:none;display:inline" d="m 531.98175,295.14325 -0.54149,4.72799 0.90971,1.77517 0,7.80646 -0.40495,2.84156 0.62543,1.94439 -0.21637,3.03904 c -0.15597,2.19025 -0.94643,-1.36408 -2.64731,-5.88725 -1.70088,-4.52318 1.81956,-26.97508 2.23641,-19.19797 z" id="path3972" inkscape:connector-curvature="0" sodipodi:nodetypes="ccccccszcc"/>
      <path sodipodi:nodetypes="ccccccszcc" inkscape:connector-curvature="0" id="path3974" d="m 533.39622,345.03561 -0.54149,2.29944 0.79401,2.70032 -0.2002,11.03653 -0.40495,2.84156 0.62557,1.94439 0.15143,6.75974 c 0.0496,2.19524 -1.84565,-1.56852 -2.81079,-12.83801 -0.96501,-11.2695 1.81955,-26.97508 2.23655,-19.19797 z" style="fill:#d7a55c;fill-opacity:1;stroke:none;display:inline"/>
      <path sodipodi:nodetypes="ccccccszssscc" inkscape:connector-curvature="0" id="path3976" d="m 534.16527,382.04412 -0.46861,2.90804 0.54574,2.13915 0,7.80647 -0.40494,2.25916 0.55269,2.0172 -0.14363,3.54863 c -0.0893,2.194 -1.67678,-0.24351 -1.99226,-1.08256 -0.31547,-0.83906 0.56715,-2.12443 0.59636,-3.25491 0.0312,-1.19697 -0.78054,-2.26437 -0.73063,-4.0806 0.0184,-0.64988 0.18999,-2.68784 0.22417,-3.33807 0.26599,-5.06838 0.25621,-9.78814 0.76366,-9.83475 z" style="fill:#d7a55c;fill-opacity:1;stroke:none;display:inline"/>
      <path style="fill:#d7a55c;fill-opacity:1;stroke:none;display:inline" d="m 530.19523,225.64428 -0.54149,2.29944 1.19413,3.40066 0.0993,9.43577 -0.60501,3.44184 0.52546,3.44511 c -0.0822,1.85304 0.9263,6.28673 -0.14859,5.65922 -1.89612,-1.10688 -3.04616,-4.56994 -2.91075,-12.93807 0.1347,-8.36812 -1.08141,-12.66831 0.53595,-14.49574 z" id="path3978" inkscape:connector-curvature="0" sodipodi:nodetypes="ccccccszcc"/>
      <path style="fill:#d7a55c;fill-opacity:1;stroke:none;display:inline" d="m 492.79854,170.14446 6.13344,0.75778 4.15606,0.77926 3.87888,-0.094 7.84297,0.58037 c 2.18933,0.16202 -4.2325,1.51545 -5.73204,1.84142 -1.49954,0.32596 -5.61747,-0.45303 -9.06645,-1.21611 -2.33538,-0.51667 -5.44109,0.0946 -7.34713,-0.46108 -4.1426,-1.20765 -7.78767,-3.02902 -4.16373,-2.69407 z" id="path3964" inkscape:connector-curvature="0" sodipodi:nodetypes="ccccszsscc"/>
      <path sodipodi:nodetypes="ccccszsscc" inkscape:connector-curvature="0" id="path3966" d="m 462.77111,166.24296 -5.60301,-0.5608 -4.21775,-0.29986 -2.7494,-0.68265 -7.99482,-0.90467 c -2.18154,-0.24685 2.99214,1.62503 4.3601,2.32051 1.36783,0.69548 5.54871,0.9859 9.0785,1.12215 2.38997,0.0923 3.86867,0.68756 5.85341,0.63327 4.31331,-0.11798 9.21461,-0.36819 5.62428,-0.96292 z" style="fill:#d7a55c;fill-opacity:1;stroke:none;display:inline"/>
      <path style="fill:#b97c2c;fill-opacity:1;stroke:none;display:inline" d="m 394.72156,160.98329 c -3.07211,0.16231 -4.09921,0.24476 -6.45359,0.44019 l -5.80477,0.469 c -2.18835,0.1768 0.19566,0.73572 1.66203,1.18828 1.46622,0.45256 5.50191,0.0272 9.00335,-0.43909 2.37083,-0.31573 2.54834,0.33103 4.4948,-0.0601 4.23037,-0.85026 6.96856,-1.66357 3.32931,-1.63866 -2.84936,0.20068 -3.38035,0.11898 -6.23113,0.0404 z" id="path3968" inkscape:connector-curvature="0" sodipodi:nodetypes="ccszsscc"/>
    </g>
  </g>
  <g inkscape:groupmode="layer" id="layer4" inkscape:label="text" style="display:inline" transform="translate(42.731832,-18.808216)"/>
</svg>